<?xml version="1.0" encoding="UTF-8" standalone="no"?>
<svg width="18px" height="18px" viewBox="0 0 18 18" version="1.1" xmlns="http://www.w3.org/2000/svg" xmlns:xlink="http://www.w3.org/1999/xlink">
    <defs></defs>
    <g id="Page-1" stroke="none" stroke-width="1" fill="none" fill-rule="evenodd">
        <g id="1280_1-(2)" transform="translate(-569.000000, -2548.000000)" fill="#000000">
            <g id="Layer_7" transform="translate(129.000000, 1729.000000)">
                <path d="M458,828 C458.1,832.9 453.8,837.1 449,837 C444.2,837.1 439.9,832.8 440,828 C439.9,823.2 444.1,818.9 449,819 C451.4,819 453.7,819.9 455.4,821.6 C457.1,823.3 458,825.6 458,828 L458,828 L458,828 Z M456.2,828 C456.2,824.1 453,820.8 449,820.8 C445,820.8 441.8,824 441.8,828 C441.8,831.8 445.2,835.2 449,835.2 C451,835.2 452.7,834.4 454.1,833.1 C455.5,831.7 456.2,830 456.2,828 L456.2,828 L456.2,828 Z M453.6,828.1 L453.6,829.6 L447.7,829.6 L447.7,822.4 L449.2,822.4 L449.5,827.8 L453.6,828.1 L453.6,828.1 Z" id="Shape-5"></path>
            </g>
        </g>
    </g>
</svg>