<?xml version="1.0" encoding="utf-8"?>
<!-- Generator: Adobe Illustrator 19.1.0, SVG Export Plug-In . SVG Version: 6.00 Build 0)  -->
<svg version="1.1" id="Layer_1" xmlns="http://www.w3.org/2000/svg" xmlns:xlink="http://www.w3.org/1999/xlink" x="0px" y="0px"
	 viewBox="0 0 307 65.4" style="enable-background:new 0 0 307 65.4;" xml:space="preserve">
<style type="text/css">
	.st0{fill:#FFFFFF;}
	.st1{fill:url(#outer_1_);}
	.st2{fill:url(#SVGID_1_);}
	.st3{opacity:0.4;fill:url(#SVGID_2_);enable-background:new    ;}
	.st4{opacity:0.4;fill:url(#SVGID_3_);enable-background:new    ;}
	.st5{fill:#566064;}
	.st6{fill:url(#SVGID_4_);}
	.st7{fill:#A4AAAE;fill-opacity:0.6;}
	.st8{fill:#343E47;}
	.st9{fill:url(#SVGID_5_);}
	.st10{fill:url(#SVGID_6_);fill-opacity:0.8;}
	.st11{opacity:0.8;fill:url(#SVGID_7_);enable-background:new    ;}
	.st12{fill:url(#SVGID_8_);}
	.st13{fill:url(#SVGID_9_);}
	.st14{fill:url(#SVGID_10_);}
	.st15{fill:url(#SVGID_11_);}
	.st16{fill:url(#SVGID_12_);}
	.st17{fill:url(#SVGID_13_);}
	.st18{fill:url(#SVGID_14_);}
	.st19{fill:#FAFBFB;}
	.st20{fill:#333F47;}
	.st21{fill:none;stroke:#676767;stroke-miterlimit:10;}
</style>
<g>
	<g id="Wortmarke_Vektor_RZ_1_">
		<rect x="223.8" y="38.6" class="st0" width="4.8" height="1.2"/>
		<path class="st0" d="M144.2,31.9L143.7,43v0.2c0,0.9,0.2,1.2,1.7,1.3v0.5c-1-0.1-1.5-0.1-2.1-0.1c-0.6,0-1,0-2.1,0.1v-0.5
			c1.5-0.1,1.7-0.2,1.7-1.4l0.5-10.5v-0.1c0-0.9-0.3-1.2-1.7-1.3v-0.6c0.8,0.1,1.2,0.1,1.7,0.1c0.8,0,1.2,0,2-0.1l4,10.8l4.1-10.8
			c0.9,0.1,1.4,0.1,2.1,0.1c0.6,0,0.9,0,1.7-0.1v0.6c-1.4,0.1-1.7,0.3-1.7,1.3v0.1l0.2,10.5c0,1.2,0.2,1.3,1.7,1.4v0.5
			c-1.4-0.1-1.9-0.1-2.7-0.1s-1.3,0-2.7,0.1v-0.5c1.4-0.1,1.7-0.3,1.7-1.3v-0.1L153.7,32l-3.6,9.4l-0.2,0.7l-0.3,0.8l-0.2,0.8
			l-0.2,0.7h-0.3l-0.2-0.7l-0.3-0.8l-0.2-0.8l-0.2-0.8L144.2,31.9z M163.1,44.5c-2,0-2.8-1.5-2.8-4.9h6.4c0-3.3-1.4-5-4-5
			s-4.2,2.1-4.2,5.4c0,3.3,1.6,5.2,4.3,5.2c2.1,0,3.5-1.3,3.7-3.5h-0.8C165.5,43.4,164.6,44.5,163.1,44.5 M160.3,38.8
			c0.2-2.4,1-3.7,2.4-3.7c1.4,0,2.1,1.2,2.2,3.7H160.3z M167.8,35.3v-0.3c1.2-0.1,2-0.2,2.8-0.5c0.1,0.8,0.1,1.2,0.2,1.7v0.2
			c0.5-1.2,1.4-2,2.4-2s1.9,0.7,1.9,1.7c0,0.6-0.3,1-0.9,1c-0.5,0-0.9-0.3-0.9-0.7c0,0,0-0.1,0-0.2v-0.2V36c0-0.3-0.2-0.5-0.7-0.5
			c-1.2,0-1.9,1.4-1.9,3.5v4.4c0,0.9,0.2,1,1.5,1.2v0.5c-1.2-0.1-1.6-0.1-2.3-0.1c-0.8,0-1.2,0-2.4,0.1v-0.5
			c1.3-0.1,1.5-0.2,1.5-1.2v-6.8v-0.3c0-0.9-0.1-1-1.3-1H167.8z M183.5,34.3v3.5H183c-0.3-1.9-1.2-2.8-2.4-2.8
			c-1.6,0-2.6,1.7-2.6,4.8s0.8,4.5,2.4,4.5c1.3,0,2.1-0.9,2.3-2.8h0.9c-0.2,2.3-1.5,3.5-3.4,3.5c-2.4,0-4.2-2.1-4.2-5.2
			s1.7-5.4,4.2-5.4c0.9,0,1.5,0.2,2.2,0.9l0.6-1H183.5z M189.8,44.5c-2,0-2.8-1.5-2.8-4.9h6.4c0-3.3-1.4-5-4-5
			c-2.6,0-4.2,2.1-4.2,5.4c0,3.3,1.6,5.2,4.3,5.2c2.1,0,3.5-1.3,3.7-3.5h-0.8C192.2,43.4,191.3,44.5,189.8,44.5 M187,38.8
			c0.2-2.4,1-3.7,2.4-3.7s2.1,1.2,2.2,3.7H187z M203.3,42.7V30.4c-1,0.2-2,0.5-3.3,0.6v0.3c1.4,0,1.5,0.1,1.5,1.3v3.7
			c-0.8-1.3-1.4-1.6-2.6-1.6c-2.3,0-3.8,2.2-3.8,5.2c0,3,1.6,5.2,4,5.2c1.2,0,2.1-0.6,2.7-1.7c0.1,0.8,0.1,0.9,0.3,1.7
			c0.9-0.2,1.3-0.3,2.4-0.5h0.3v-0.3C203.4,44.1,203.3,44,203.3,42.7 M199.2,44.6c-1.5,0-2.3-1.6-2.3-4.7c0-3.1,0.7-4.7,2.3-4.7
			s2.4,1.6,2.4,4.8C201.6,43,200.7,44.6,199.2,44.6 M210.2,44.5c-2,0-2.8-1.5-2.8-4.9h6.4c0-3.3-1.4-5-4-5s-4.2,2.1-4.2,5.4
			c0,3.3,1.6,5.2,4.3,5.2c2.1,0,3.5-1.3,3.7-3.5h-0.8C212.6,43.4,211.7,44.5,210.2,44.5 M207.4,38.8c0.2-2.4,1-3.7,2.4-3.7
			c1.4,0,2.1,1.2,2.2,3.7H207.4z M215.5,45.2v-3.6h0.5c0.3,2,1.3,2.9,2.8,2.9c1.3,0,2.2-0.8,2.2-2c0-0.7-0.3-1.2-1.4-1.7l-0.8-0.3
			l-1-0.3c-1.5-0.7-2.1-1.3-2.1-2.6c0-1.7,1.3-2.8,3.3-2.8c0.8,0,1.4,0.2,2.2,0.7l0.3-0.9h0.3v3.3h-0.5c-0.2-1.7-0.9-2.6-2.2-2.6
			c-1.2,0-2,0.8-2,1.7c0,0.8,0.3,1.2,2.2,2l0.9,0.3c1.6,0.7,2.2,1.4,2.2,2.7c0,1.7-1.4,3-3.5,3c-0.9,0-1.7-0.2-2.6-0.9l-0.5,0.9
			h-0.5V45.2z M238.6,34.1c0-1.2-0.5-2.1-1.3-2.7c-0.7-0.6-1.5-0.8-2.9-0.8h-5.6v0.6c1.5,0.1,1.7,0.2,1.7,1.4V43
			c0,1.2-0.1,1.3-1.7,1.4v0.5h5.4c1.6,0,2.4-0.2,3.4-0.7c1-0.7,1.7-2,1.7-3.4c0-1.2-0.5-2.2-1.3-2.8c-0.5-0.3-0.9-0.6-1.7-0.7
			C237.8,36.7,238.6,35.6,238.6,34.1 M232.3,31.3h1.9c1.7,0,2.6,0.9,2.6,2.9c0,0.9-0.2,1.7-0.7,2.2c-0.5,0.6-1,0.7-2.2,0.7h-1.5
			V31.3z M234.4,37.7c1.2,0,1.7,0.2,2.2,0.7c0.5,0.5,0.8,1.4,0.8,2.4c0,2.1-1,3.4-3,3.4h-0.8c-1.2,0-1.3-0.1-1.3-1.2v-5.4H234.4z
			 M245.6,44.5c-2,0-2.8-1.5-2.8-4.9h6.4c-0.1-3.3-1.4-5-4-5s-4.2,2.1-4.2,5.4c0,3.3,1.6,5.2,4.3,5.2c2.1,0,3.5-1.3,3.7-3.5h-0.8
			C248.1,43.4,247.2,44.5,245.6,44.5 M242.8,38.8c0.2-2.4,1-3.7,2.4-3.7s2.1,1.2,2.2,3.7H242.8z M250.3,35.4V35
			c1.3-0.1,2-0.3,2.8-0.7c0.1,0.5,0.1,1,0.2,1.9c0.8-1.2,1.6-1.6,2.9-1.6c1.3,0,2.4,0.7,2.8,1.7c0.2,0.5,0.3,1.2,0.3,2v5.1
			c0,0.9,0.2,1,1.5,1.2v0.5c-1.2-0.1-1.5-0.1-2.3-0.1c-0.8,0-1.2,0-2.3,0.1v-0.5c1.2,0,1.4-0.2,1.4-1.2v-5.2c0-1.9-0.6-2.6-2-2.6
			c-1.4,0-2.2,0.9-2.2,2.7v5.1c0,0.8,0.2,1,1.4,1.2v0.5c-1.2-0.1-1.5-0.1-2.3-0.1c-0.7,0-1.2,0-2.3,0.1v-0.5
			c1.3-0.1,1.5-0.2,1.5-1.2v-6.6v-0.3c0-0.9-0.1-1-1.2-1C250.5,35.4,250.4,35.4,250.3,35.4 M261.7,44.9l5.8-9.6h-2.7
			c-1.4,0-1.7,0.3-2.4,2.2H262l0.5-2.8h7.3l-5.8,9.6h2.4c1.4,0,2.1-0.6,2.7-2.6h0.5l-0.6,3h-7.2V44.9z"/>
	</g>
	<path class="st0" d="M174.5,53.7v0.7h-2.3v8.3h-0.8v-8.3H169v-0.7H174.5z M176.6,53.7v3.4c0.5-0.7,1-0.9,1.9-0.9s1.4,0.3,1.7,0.8
		c0.2,0.3,0.2,0.7,0.2,2v3.6h-0.7v-3.6c0-1,0-1.3-0.2-1.6s-0.6-0.6-1.2-0.6c-1.2,0-1.7,0.8-1.7,2.3v3.6h-0.7v-9H176.6z M182.8,59.5
		c0,1.7,0.7,2.7,2,2.7c0.7,0,1.2-0.3,1.5-1l0.7,0.1c-0.3,1-1.2,1.5-2.2,1.5c-1.6,0-2.7-1.3-2.7-3.3c0-2.1,1-3.4,2.6-3.4
		s2.4,1.3,2.4,3.1v0.2H182.8z M186.3,58.9c-0.1-1.4-0.7-2.2-1.7-2.2s-1.6,0.8-1.9,2.2H186.3z M192.8,53.7v3.6c0.5-0.8,1-1.2,1.9-1.2
		c1.5,0,2.4,1.3,2.4,3.3c0,2-1,3.4-2.4,3.4c-0.8,0-1.3-0.3-1.7-1V62c0,0.3,0,0.5-0.1,0.7h-0.7c0.1-0.3,0.1-0.7,0.1-1.9v-7.1H192.8z
		 M192.8,59.5c0,1.6,0.7,2.7,1.7,2.7s1.7-1,1.7-2.7s-0.7-2.7-1.7-2.7C193.5,56.7,192.8,57.8,192.8,59.5z M199.1,59.5
		c0,1.7,0.7,2.7,2,2.7c0.7,0,1.2-0.3,1.5-1l0.7,0.1c-0.3,1-1.2,1.5-2.2,1.5c-1.6,0-2.7-1.3-2.7-3.3c0-2.1,1-3.4,2.6-3.4
		s2.4,1.3,2.4,3.1v0.2H199.1z M202.6,58.9c-0.1-1.4-0.7-2.2-1.7-2.2s-1.6,0.8-1.9,2.2H202.6z M208.3,58c-0.1-0.8-0.5-1.3-1.4-1.3
		c-0.8,0-1.3,0.5-1.3,1s0.3,0.8,1.5,1.2c1,0.3,1.4,0.5,1.7,0.8c0.2,0.2,0.3,0.7,0.3,1.2c0,1.2-0.8,2-2.2,2s-2.2-0.7-2.2-2.1h0.7
		c0.1,0.9,0.6,1.4,1.5,1.4c0.9,0,1.5-0.5,1.5-1.3c0-0.3-0.1-0.7-0.5-0.8c-0.2-0.1-0.2-0.1-1.4-0.6c-0.7-0.2-1-0.3-1.3-0.7
		c-0.2-0.2-0.3-0.7-0.3-1c0-1,0.8-1.7,2.1-1.7s2,0.7,2.1,1.9h-0.9V58z M213.3,56.3v0.6h-1.6l-0.1,3.5v0.6V61c0,0.8,0.1,1,0.7,1
		c0.2,0,0.6-0.1,0.9-0.2v0.7c-0.3,0.1-0.6,0.1-1,0.1c-0.9,0-1.4-0.3-1.4-1.3c0-0.1,0-0.3,0-0.7v-0.5l0.1-3.4h-0.8v-0.6h0.9v-1.9h0.7
		v1.9H213.3z M222.7,59.4c0,2-1,3.4-2.7,3.4c-1.6,0-2.7-1.3-2.7-3.4c0-2,1-3.3,2.7-3.3C221.6,56.1,222.7,57.4,222.7,59.4z M218,59.4
		c0,1.6,0.8,2.7,2,2.7s2-1.2,2-2.7c0-1.6-0.8-2.7-2-2.7S218,57.8,218,59.4z M224.9,56.3c0.1,0.3,0.1,0.7,0.1,0.9c0,0.1,0,0.2,0,0.3
		c0.5-1,0.9-1.5,1.6-1.5c0.2,0,0.6,0.1,0.8,0.2V57c-0.5-0.2-0.6-0.2-0.8-0.2c-0.5,0-0.9,0.3-1.3,1c-0.2,0.5-0.3,1-0.3,2v2.8h-0.7
		v-4.1c0-1.4,0-1.5-0.1-2.2H224.9z M231.9,56.3c0.1,0.3,0.1,0.5,0.1,0.9c0.5-0.8,1-1.2,2-1.2c0.9,0,1.6,0.3,1.9,1
		c0.1,0.3,0.1,0.6,0.1,1.9v3.6h-0.7v-3.6c0-1,0-1.3-0.2-1.6s-0.6-0.6-1.2-0.6c-1.2,0-1.9,0.8-1.9,2.2v3.6h-0.7v-4.2
		c0-1.5,0-1.5-0.1-2.1H231.9z M243,59.4c0,2-1,3.4-2.7,3.4c-1.6,0-2.7-1.3-2.7-3.4c0-2,1-3.3,2.7-3.3C241.8,56.1,243,57.4,243,59.4z
		 M238.3,59.4c0,1.6,0.8,2.7,2,2.7s2-1.2,2-2.7c0-1.6-0.8-2.7-2-2.7S238.3,57.8,238.3,59.4z M247,56.3v0.6h-1.6l-0.1,3.5v0.6V61
		c0,0.8,0.1,1,0.7,1c0.2,0,0.6-0.1,0.9-0.2v0.7c-0.3,0.1-0.6,0.1-1,0.1c-0.9,0-1.4-0.3-1.4-1.3c0-0.1,0-0.3,0-0.7v-0.5l0.1-3.4h-0.9
		v-0.6h0.9v-1.9h0.7v1.9H247z M249,53.7v3.4c0.5-0.7,1-0.9,1.9-0.9c0.8,0,1.4,0.3,1.7,0.8c0.2,0.3,0.2,0.7,0.2,2v3.6h-0.7v-3.6
		c0-1,0-1.3-0.2-1.6s-0.6-0.6-1.2-0.6c-1.2,0-1.7,0.8-1.7,2.3v3.6h-0.7v-9H249z M255.8,54.2c0,0.3-0.2,0.6-0.6,0.6
		c-0.3,0-0.6-0.2-0.6-0.6s0.2-0.6,0.6-0.6C255.5,53.6,255.8,53.8,255.8,54.2z M255.7,56.3v6.3h-0.8v-6.3H255.7z M258.1,56.3
		c0.1,0.3,0.1,0.5,0.1,0.9c0.5-0.8,1-1.2,2-1.2s1.6,0.3,1.9,1c0.1,0.3,0.1,0.6,0.1,1.9v3.6h-0.7v-3.6c0-1,0-1.3-0.2-1.6
		s-0.6-0.6-1.2-0.6c-1.2,0-1.9,0.8-1.9,2.2v3.6h-0.7v-4.2c0-1.5,0-1.5-0.1-2.1H258.1z M269.2,56.8h-1.3c0.3,0.3,0.6,0.9,0.6,1.5
		s-0.2,1.2-0.6,1.4c-0.2,0.2-0.5,0.3-1.5,0.6c-0.9,0.2-1.3,0.5-1.3,0.8c0,0.2,0.2,0.3,1.3,0.5c1.3,0.1,1.6,0.2,2.1,0.5
		c0.5,0.3,0.8,0.8,0.8,1.4c0,1.2-1,1.9-2.8,1.9c-1.6,0-2.8-0.7-2.8-1.9c0-0.8,0.3-1.3,1.4-1.6c-0.5-0.1-0.7-0.3-0.7-0.7
		c0-0.5,0.3-0.7,1.2-1c-0.9-0.3-1.3-0.9-1.3-1.9c0-1.3,0.9-2.1,2.2-2.1c0.3,0,0.6,0,0.9,0.1l1.9-0.1v0.7H269.2z M264.3,63.5
		c0,0.7,0.8,1.2,2.1,1.2s2.1-0.5,2.1-1.2c0-0.8-0.7-1.2-2.1-1.2C265.1,62.3,264.3,62.8,264.3,63.5z M264.9,58.4
		c0,0.8,0.6,1.4,1.4,1.4c0.8,0,1.4-0.6,1.4-1.4s-0.6-1.5-1.4-1.5C265.5,56.8,264.9,57.4,264.9,58.4z M271.9,62.1
		c0,0.3-0.3,0.7-0.7,0.7c-0.3,0-0.7-0.3-0.7-0.7c0-0.3,0.3-0.7,0.7-0.7C271.5,61.4,271.9,61.7,271.9,62.1z"/>
	
		<linearGradient id="outer_1_" gradientUnits="userSpaceOnUse" x1="24.998" y1="54.6894" x2="73.002" y2="14.4861" gradientTransform="matrix(1 0 0 -1 0 66.5877)">
		<stop  offset="0" style="stop-color:#FFFFFF"/>
		<stop  offset="0.1" style="stop-color:#E6E6E5"/>
		<stop  offset="0.1" style="stop-color:#CCCFCF"/>
		<stop  offset="0.2" style="stop-color:#B5BABC"/>
		<stop  offset="0.2" style="stop-color:#A4ABAE"/>
		<stop  offset="0.3" style="stop-color:#99A1A5"/>
		<stop  offset="0.3" style="stop-color:#979FA3"/>
		<stop  offset="0.4" style="stop-color:#81898E"/>
		<stop  offset="0.5" style="stop-color:#667176"/>
		<stop  offset="0.6" style="stop-color:#545D63"/>
		<stop  offset="0.7" style="stop-color:#475158"/>
		<stop  offset="0.8" style="stop-color:#434D54"/>
		<stop  offset="1" style="stop-color:#475157"/>
	</linearGradient>
	<path id="outer_24_" class="st1" d="M80.3,32c0,17.3-14,31.3-31.3,31.3S17.7,49.3,17.7,32S31.7,0.7,49,0.7S80.3,14.7,80.3,32z
		 M49,2.6C32.7,2.6,19.6,15.7,19.6,32S32.8,61.4,49,61.4c16.3,0,29.4-13.2,29.4-29.4C78.4,15.7,65.3,2.6,49,2.6z"/>
	
		<linearGradient id="SVGID_1_" gradientUnits="userSpaceOnUse" x1="26.4714" y1="53.529" x2="71.4714" y2="15.729" gradientTransform="matrix(1 0 0 -1 0 66.5877)">
		<stop  offset="0" style="stop-color:#0E1F29"/>
		<stop  offset="0.2" style="stop-color:#333F47"/>
		<stop  offset="0.5" style="stop-color:#787F83"/>
		<stop  offset="0.5" style="stop-color:#80888C"/>
		<stop  offset="0.7" style="stop-color:#B2B7B7"/>
		<stop  offset="0.8" style="stop-color:#D1D4D3"/>
		<stop  offset="0.8" style="stop-color:#DDDFDC"/>
		<stop  offset="1" style="stop-color:#FAFBFB"/>
	</linearGradient>
	<path class="st2" d="M49,2.6C32.7,2.6,19.6,15.7,19.6,32S32.8,61.4,49,61.4c16.3,0,29.4-13.2,29.4-29.4C78.4,15.7,65.3,2.6,49,2.6z
		 M49,59.5c-15.2,0-27.5-12.3-27.5-27.5S33.8,4.5,49,4.5S76.5,16.8,76.5,32S64.2,59.5,49,59.5z"/>
	
		<linearGradient id="SVGID_2_" gradientUnits="userSpaceOnUse" x1="2051.7358" y1="19.0565" x2="2073.636" y2="-41.1435" gradientTransform="matrix(-1 0 0 1 2111.6726 43.0071)">
		<stop  offset="0" style="stop-color:#E0E2E0"/>
		<stop  offset="0.1" style="stop-color:#C0C4C2"/>
		<stop  offset="0.3" style="stop-color:#999FA0"/>
		<stop  offset="0.5" style="stop-color:#7D8386"/>
		<stop  offset="0.7" style="stop-color:#687074;stop-opacity:0"/>
		<stop  offset="0.8" style="stop-color:#5C646A;stop-opacity:0"/>
		<stop  offset="1" style="stop-color:#586165;stop-opacity:0"/>
	</linearGradient>
	<path class="st3" d="M49,63.3c17.3,0,31.3-14,31.3-31.3S66.3,0.7,49,0.7S17.7,14.7,17.7,32C17.7,49.3,31.7,63.3,49,63.3L49,63.3z
		 M49,0c17.6,0,32,14.4,32,32S66.6,64,49,64S17,49.6,17,32S31.4,0,49,0L49,0z"/>
	<path class="st0" d="M19.2,32.1C19.2,15.7,32.5,2.2,49,2.2l0,0c16.5,0,29.8,13.4,29.8,29.9l0,0c0,16.4-13.3,29.7-29.8,29.7l0,0
		C32.5,61.8,19.2,48.5,19.2,32.1L19.2,32.1z M28.5,11.5c-5.3,5.3-8.6,12.6-8.6,20.6l0,0c0,8,3.3,15.3,8.5,20.5l0,0
		c5.3,5.2,12.6,8.5,20.6,8.5l0,0c8,0,15.3-3.2,20.5-8.5l0,0c5.3-5.2,8.5-12.5,8.5-20.5l0,0c0-8-3.3-15.3-8.5-20.6l0,0
		C64.3,6.2,57,2.9,49,2.9l0,0C41,2.9,33.7,6.2,28.5,11.5L28.5,11.5z"/>
	
		<linearGradient id="SVGID_3_" gradientUnits="userSpaceOnUse" x1="35.2007" y1="58.4865" x2="62.7993" y2="10.689" gradientTransform="matrix(1 0 0 -1 0 66.5877)">
		<stop  offset="0" style="stop-color:#E0E2E0"/>
		<stop  offset="0.1" style="stop-color:#C0C4C2"/>
		<stop  offset="0.3" style="stop-color:#999FA0"/>
		<stop  offset="0.5" style="stop-color:#7D8386"/>
		<stop  offset="0.7" style="stop-color:#687074;stop-opacity:0"/>
		<stop  offset="0.8" style="stop-color:#5C646A;stop-opacity:0"/>
		<stop  offset="1" style="stop-color:#586165;stop-opacity:0"/>
	</linearGradient>
	<path class="st4" d="M49,59.6c-7.4,0-14.3-2.9-19.5-8.1S21.4,39.4,21.4,32s2.9-14.3,8.1-19.5S41.6,4.4,49,4.4s14.3,2.9,19.5,8.1
		s8.1,12.1,8.1,19.5s-2.9,14.3-8.1,19.5S56.4,59.6,49,59.6L49,59.6z M49,58.8c7.1,0,13.9-2.8,18.9-7.8c5.1-5.1,7.8-11.8,7.8-18.9
		s-2.8-13.9-7.8-18.9C62.8,8.1,56.1,5.4,49,5.4s-13.9,2.8-18.9,7.8C25,18.1,22.2,24.9,22.2,32S25,45.9,30,50.9
		C35.1,56,41.9,58.8,49,58.8L49,58.8z"/>
	<path class="st0" d="M49.4,31.4"/>
	<path class="st0" d="M73.3,45c-0.5-0.4-19.8-15.7-19.8-15.7L49,3.6c-0.3,0.1-0.7,0.4-0.9,0.8l-3.2,25L25,44.7c0,0-0.4,0.5-0.6,0.8
		c-0.1,0.2-0.1,0.5-0.1,0.8l0,0l24.6-10.1l24.6,10.1l0,0C73.7,45.8,73.5,45.3,73.3,45z"/>
	<path class="st5" d="M49.2,32.8L49,37.4l22.6,9.1c0.8,0.4,1.4,0.2,2-0.2L49.5,32.7C49.4,32.6,49.2,32.7,49.2,32.8z"/>
	
		<linearGradient id="SVGID_4_" gradientUnits="userSpaceOnUse" x1="61.4882" y1="27.1949" x2="59.7882" y2="24.3949" gradientTransform="matrix(1 0 0 -1 0 66.5877)">
		<stop  offset="0" style="stop-color:#27343C"/>
		<stop  offset="1" style="stop-color:#0A1620;stop-opacity:0"/>
	</linearGradient>
	<path class="st6" d="M49.2,32.8c0,0,1.3,2.3,2.8,3.9c2.1,2.3,4.9,3.9,4.9,3.9l14.7,5.9c0.8,0.4,1.4,0.2,2-0.2L49.5,32.7
		C49.4,32.6,49.2,32.7,49.2,32.8z"/>
	<path class="st7" d="M73.5,45.4c0-0.1-0.1-0.2-0.2-0.4L52.7,29.9l-2.8,1.8c0,0,0.2,0.1,0.3,0c0.3-0.1,0.9-0.2,1.5,0
		C52.2,31.9,73.5,45.5,73.5,45.4C73.5,45.5,73.5,45.5,73.5,45.4z"/>
	<path class="st8" d="M72.8,44.5L53.6,29.3l0,0l-0.9,0.6l20.6,15.2C73.2,44.9,73,44.7,72.8,44.5z"/>
	<path class="st5" d="M49.5,31.3c-0.1,0.1-0.1,0.1-0.1,0.1s0,0.2,0.2,0.1c0.1-0.1,3-1.6,4-2.2l-3.5-24C50,4.4,49.6,4,48.9,3.7
		l0.4,27.8L49.5,31.3z"/>
	<path class="st7" d="M47.8,5.3v1.3l-2.2,22.1c0,0.3,0.1,0.6,0.4,0.8l1.3,1l0.9-24.4l0.1-1.9C48,4.4,47.9,4.8,47.8,5.3z"/>
	<path class="st7" d="M46.6,30.9l-1.2-1L25.1,44.6c0,0-0.6,0.4-0.7,0.8l0,0l0,0l0,0l0.7-0.4l0,0l21.3-13.4
		C46.8,31.4,46.9,31.2,46.6,30.9z"/>
	<path class="st5" d="M48.7,32.8c0-0.1-0.1-0.2-0.2-0.1L24.3,46.4c0.6,0.4,1.2,0.5,2,0.2l22.6-9.1L48.7,32.8z"/>
	
		<linearGradient id="SVGID_5_" gradientUnits="userSpaceOnUse" x1="56.5802" y1="37.4754" x2="53.7802" y2="41.9754" gradientTransform="matrix(1 0 0 -1 0 66.5877)">
		<stop  offset="0.1" style="stop-color:#0A1620"/>
		<stop  offset="0.9" style="stop-color:#0A1620;stop-opacity:0"/>
	</linearGradient>
	<path class="st9" d="M49.4,31.4l0.1-0.1C49.4,31.4,49.4,31.4,49.4,31.4L49.4,31.4c0,0,0,0.1,0.1,0.1h0.1c0.1-0.1,3-1.6,4-2.2
		l-0.4-2.9l0,0L50.1,5.3c0-0.4-0.1-0.7-0.3-0.9c0,0,1.5,20.2,1.5,22.4C51.3,29.7,49.4,31.4,49.4,31.4z"/>
	
		<linearGradient id="SVGID_6_" gradientUnits="userSpaceOnUse" x1="48.9818" y1="30.2515" x2="44.7818" y2="29.0515" gradientTransform="matrix(1 0 0 -1 0 66.5877)">
		<stop  offset="0.2" style="stop-color:#0A1620"/>
		<stop  offset="0.9" style="stop-color:#0A1620;stop-opacity:0"/>
	</linearGradient>
	<path class="st10" d="M48.7,32.8c0-0.1-0.1-0.2-0.2-0.1L24.3,46.4c0.6,0.4,1.2,0.5,2,0.2l22.6-9.1L48.7,32.8z"/>
	
		<linearGradient id="SVGID_7_" gradientUnits="userSpaceOnUse" x1="37.7914" y1="24.6843" x2="37.1914" y2="26.1843" gradientTransform="matrix(1 0 0 -1 0 66.5877)">
		<stop  offset="0" style="stop-color:#0A1620"/>
		<stop  offset="0.1" style="stop-color:#0A1620"/>
		<stop  offset="1" style="stop-color:#0A1620;stop-opacity:0"/>
	</linearGradient>
	<path class="st11" d="M26.3,46.5l22.6-9.1L48.7,33c-0.4,1.2-1.1,2.5-3,3.5l0,0c-1.4,0.8-14.8,7.4-19.6,9.7
		c-0.3,0.2-0.7,0.3-0.9,0.4C25.6,46.8,25.9,46.7,26.3,46.5z"/>
	
		<linearGradient id="SVGID_8_" gradientUnits="userSpaceOnUse" x1="52.6017" y1="49.3733" x2="49.2017" y2="48.9733" gradientTransform="matrix(1 0 0 -1 0 66.5877)">
		<stop  offset="0.3" style="stop-color:#0A1620"/>
		<stop  offset="0.3" style="stop-color:#0A1620"/>
		<stop  offset="0.8" style="stop-color:#0A1620;stop-opacity:0"/>
	</linearGradient>
	<path class="st12" d="M49.5,31.3c-0.1,0.1-0.1,0.1-0.1,0.1s0,0.2,0.2,0.1c0.1-0.1,3-1.6,4-2.2l-3.5-24C50,4.4,49.6,4,48.9,3.7
		l0.4,27.8L49.5,31.3z"/>
	
		<linearGradient id="SVGID_9_" gradientUnits="userSpaceOnUse" x1="52.7075" y1="49.4305" x2="50.4075" y2="49.1305" gradientTransform="matrix(1 0 0 -1 0 66.5877)">
		<stop  offset="0.4" style="stop-color:#27343C"/>
		<stop  offset="1" style="stop-color:#3B474F;stop-opacity:0"/>
	</linearGradient>
	<path class="st13" d="M49.5,31.3c-0.1,0.1-0.1,0.1-0.1,0.1s0,0.2,0.2,0.1c0.1-0.1,3-1.6,4-2.2l-3.5-24C50,4.4,49.6,4,48.9,3.7
		l0.4,27.8L49.5,31.3z"/>
	
		<linearGradient id="SVGID_10_" gradientUnits="userSpaceOnUse" x1="16.6395" y1="33.7563" x2="44.5395" y2="17.6563" gradientTransform="matrix(1 0 0 -1 0 66.5877)">
		<stop  offset="0" style="stop-color:#24303A;stop-opacity:0"/>
		<stop  offset="0" style="stop-color:#25323B;stop-opacity:0"/>
		<stop  offset="0.1" style="stop-color:#27343C"/>
	</linearGradient>
	<path class="st14" d="M22.1,44.4c-0.7-1.6-4.7-9.4-0.3-24.4h-1.7c-0.9,3-1.6,4.8-2,7.5c0,0-0.2,1-0.3,2.1c-0.1,1.1-0.1,1.7-0.1,2.4
		c0,6,1.5,9.5,1.5,9.5c1.6,5,4.4,9.5,8.2,12.9c3.3,2.9,8.4,5.1,12.6,5.9C39.3,60.2,27.3,55.1,22.1,44.4z"/>
	
		<linearGradient id="SVGID_11_" gradientUnits="userSpaceOnUse" x1="48.95" y1="29.1877" x2="48.95" y2="33.9877" gradientTransform="matrix(1 0 0 -1 0 66.5877)">
		<stop  offset="0.3" style="stop-color:#A4AAAE"/>
		<stop  offset="1" style="stop-color:#A4AAAE;stop-opacity:0"/>
	</linearGradient>
	<path class="st15" d="M49.4,32.6h-0.9l0,0c0.1,0,0.2,0,0.2,0.1l0.2,4.6l0,0H49l0.2-4.6C49.2,32.6,49.3,32.5,49.4,32.6L49.4,32.6z"
		/>
	
		<linearGradient id="SVGID_12_" gradientUnits="userSpaceOnUse" x1="64.65" y1="64.2877" x2="64.65" y2="3.2877" gradientTransform="matrix(1 0 0 -1 0 66.5877)">
		<stop  offset="0" style="stop-color:#DDDFDC"/>
		<stop  offset="0" style="stop-color:#C4C8C5"/>
		<stop  offset="0" style="stop-color:#9CA2A3"/>
		<stop  offset="0" style="stop-color:#82888B"/>
		<stop  offset="0" style="stop-color:#72797E"/>
		<stop  offset="0" style="stop-color:#6B7378"/>
		<stop  offset="0.2" style="stop-color:#333F47"/>
		<stop  offset="0.5" style="stop-color:#27343C"/>
		<stop  offset="0.8" style="stop-color:#333F47"/>
		<stop  offset="1" style="stop-color:#434D54"/>
	</linearGradient>
	<path class="st16" d="M59,2.3c10.5,4,20.4,15,20.4,28.9C79.4,48,66,61.7,49,61.7v1.6c17,0,31.3-14,31.3-31.3
		C80.3,18.2,71.5,6.6,59,2.3z"/>
	
		<linearGradient id="SVGID_13_" gradientUnits="userSpaceOnUse" x1="49" y1="65.8877" x2="49.3" y2="65.8877" gradientTransform="matrix(1 0 0 -1 0 66.5877)">
		<stop  offset="0" style="stop-color:#DDDFDC"/>
		<stop  offset="0" style="stop-color:#C4C8C5"/>
		<stop  offset="0" style="stop-color:#9CA2A3"/>
		<stop  offset="0" style="stop-color:#82888B"/>
		<stop  offset="0" style="stop-color:#72797E"/>
		<stop  offset="0" style="stop-color:#6B7378"/>
		<stop  offset="0.2" style="stop-color:#333F47"/>
		<stop  offset="0.5" style="stop-color:#27343C"/>
		<stop  offset="0.8" style="stop-color:#333F47"/>
		<stop  offset="1" style="stop-color:#434D54"/>
	</linearGradient>
	<path class="st17" d="M49.3,0.7c-0.1,0-0.2,0-0.3,0C49.1,0.7,49.2,0.7,49.3,0.7L49.3,0.7z"/>
	
		<linearGradient id="SVGID_14_" gradientUnits="userSpaceOnUse" x1="74.2891" y1="58.4951" x2="60.7891" y2="38.6951" gradientTransform="matrix(1 0 0 -1 0 66.5877)">
		<stop  offset="0.7" style="stop-color:#27343C"/>
		<stop  offset="0.7" style="stop-color:#2B373F"/>
		<stop  offset="0.7" style="stop-color:#37424A"/>
		<stop  offset="0.7" style="stop-color:#49555C"/>
		<stop  offset="0.8" style="stop-color:#646D74;stop-opacity:0"/>
		<stop  offset="0.8" style="stop-color:#858C91;stop-opacity:0"/>
		<stop  offset="0.8" style="stop-color:#AFB4B7;stop-opacity:0"/>
		<stop  offset="0.8" style="stop-color:#E0E2E3;stop-opacity:0"/>
		<stop  offset="0.8" style="stop-color:#FFFFFF;stop-opacity:0"/>
	</linearGradient>
	<path class="st18" d="M75.8,20.2C68.8,4.1,53,3.2,52.1,3.1c0,0,0,0-0.1,0l0,0c12.1,2.2,19.8,10.1,22.5,18.4v0.1
		c1.2,3.2,1.8,6.6,1.9,10.3c0.1,3.5-0.7,7.4-2.2,11C74.1,43.4,74,44,73.9,44h1.6C80.3,35,78.2,25.9,75.8,20.2z"/>
	<path class="st19" d="M19.2,32.1C19.2,15.7,32.5,2.2,49,2.2l0,0c16.5,0,29.8,13.4,29.8,29.9l0,0c0,16.4-13.3,29.7-29.8,29.7l0,0
		C32.5,61.8,19.2,48.5,19.2,32.1L19.2,32.1z M28.5,11.5c-5.3,5.3-8.6,12.6-8.6,20.6l0,0c0,8,3.3,15.3,8.5,20.5l0,0
		c5.3,5.2,12.6,8.5,20.6,8.5l0,0c8,0,15.3-3.2,20.5-8.5l0,0c5.3-5.2,8.5-12.5,8.5-20.5l0,0c0-8-3.3-15.3-8.5-20.6l0,0
		C64.3,6.2,57,2.9,49,2.9l0,0C41,2.9,33.7,6.2,28.5,11.5L28.5,11.5z"/>
	<path class="st20" d="M24.9,44.8L24.9,44.8l20.4-14.7c1.1,0.6,2.9,1.4,3.1,1.4c0.2,0.1,0.2-0.1,0.2-0.1l-2.5-2.1
		c-0.3-0.2-0.4-0.5-0.4-0.8l2.4-24.1C48,4.5,48,4.7,47.9,4.8c-0.1,0.2-0.1,0.3-0.1,0.5l-3.5,24.1L25.1,44.5
		C25,44.6,24.9,44.7,24.9,44.8z"/>
	<line class="st21" x1="287.1" y1="64.7" x2="287.1" y2="30.6"/>
</g>
</svg>
